/* XPM */
static char * grsync_xpm[] = {
"32 32 302 2",
"  	c None",
". 	c #40213F",
"+ 	c #0E070E",
"@ 	c #110911",
"# 	c #1F101F",
"$ 	c #361C36",
"% 	c #442343",
"& 	c #341B34",
"* 	c #552C54",
"= 	c #824381",
"- 	c #BF64BE",
"; 	c #381D37",
"> 	c #371C36",
", 	c #6D386C",
"' 	c #743C73",
") 	c #773E77",
"! 	c #693768",
"~ 	c #572D56",
"{ 	c #3F213E",
"] 	c #321A32",
"^ 	c #231223",
"/ 	c #211121",
"( 	c #6F3A6F",
"_ 	c #AE5BAD",
": 	c #472547",
"< 	c #2E182E",
"[ 	c #894788",
"} 	c #A355A2",
"| 	c #A656A5",
"1 	c #AC59AB",
"2 	c #AE5AAD",
"3 	c #AF5BAE",
"4 	c #9E529D",
"5 	c #7D417D",
"6 	c #1E101E",
"7 	c #60325F",
"8 	c #D56FD4",
"9 	c #C064BF",
"0 	c #3B1F3B",
"a 	c #864685",
"b 	c #AD5AAC",
"c 	c #B05CAF",
"d 	c #B55EB4",
"e 	c #B960B8",
"f 	c #BB61BA",
"g 	c #BE62BD",
"h 	c #BD62BC",
"i 	c #562C55",
"j 	c #3A1E3A",
"k 	c #2C172C",
"l 	c #984F97",
"m 	c #BC61BB",
"n 	c #BF63BE",
"o 	c #BE63BD",
"p 	c #462445",
"q 	c #080408",
"r 	c #BA61B9",
"s 	c #C566C4",
"t 	c #713B70",
"u 	c #301930",
"v 	c #AA59A9",
"w 	c #B860B7",
"x 	c #271427",
"y 	c #201120",
"z 	c #C165C0",
"A 	c #A757A6",
"B 	c #1A0E1A",
"C 	c #331B33",
"D 	c #9D519C",
"E 	c #582E57",
"F 	c #773D76",
"G 	c #AA58A9",
"H 	c #B35DB2",
"I 	c #B75FB6",
"J 	c #140A14",
"K 	c #381D38",
"L 	c #C667C5",
"M 	c #D871D7",
"N 	c #703A6F",
"O 	c #0B060B",
"P 	c #150B15",
"Q 	c #693769",
"R 	c #CF6CCE",
"S 	c #3C1F3C",
"T 	c #9A509A",
"U 	c #A556A4",
"V 	c #A958A8",
"W 	c #AC5AAB",
"X 	c #B05BAF",
"Y 	c #B45EB3",
"Z 	c #B65FB5",
"` 	c #B760B6",
" .	c #010001",
"..	c #D06CCF",
"+.	c #6E3A6E",
"@.	c #000000",
"#.	c #5C305B",
"$.	c #C265C1",
"%.	c #482548",
"&.	c #1D0F1D",
"*.	c #492649",
"=.	c #733C73",
"-.	c #934C93",
";.	c #A154A0",
">.	c #AB59AA",
",.	c #A857A7",
"'.	c #673566",
").	c #D46ED3",
"!.	c #190D19",
"~.	c #0A050A",
"{.	c #6E396D",
"].	c #D16DD0",
"^.	c #613260",
"/.	c #180C18",
"(.	c #4E294D",
"_.	c #643464",
":.	c #793F78",
"<.	c #8F4A8E",
"[.	c #9B509A",
"}.	c #904B8F",
"|.	c #623362",
"1.	c #9F539E",
"2.	c #884787",
"3.	c #040204",
"4.	c #7B407A",
"5.	c #6E396E",
"6.	c #020102",
"7.	c #100810",
"8.	c #D46FD3",
"9.	c #170C17",
"0.	c #402140",
"a.	c #5C2F5B",
"b.	c #6B386A",
"c.	c #80427F",
"d.	c #6C386B",
"e.	c #2F182E",
"f.	c #1B0E1B",
"g.	c #854584",
"h.	c #633363",
"i.	c #0C060C",
"j.	c #060306",
"k.	c #030203",
"l.	c #592E59",
"m.	c #3A1E39",
"n.	c #2B172B",
"o.	c #532B52",
"p.	c #713B71",
"q.	c #733B72",
"r.	c #432343",
"s.	c #090409",
"t.	c #793F79",
"u.	c #522A52",
"v.	c #944D93",
"w.	c #331A32",
"x.	c #8B488A",
"y.	c #0D070D",
"z.	c #954E94",
"A.	c #482647",
"B.	c #4B274B",
"C.	c #683668",
"D.	c #3E203D",
"E.	c #0B050B",
"F.	c #2B162A",
"G.	c #814380",
"H.	c #C466C3",
"I.	c #874686",
"J.	c #2B162B",
"K.	c #281528",
"L.	c #7C417B",
"M.	c #130A13",
"N.	c #0F080F",
"O.	c #733C72",
"P.	c #D26DD1",
"Q.	c #582E58",
"R.	c #492648",
"S.	c #30192F",
"T.	c #994F98",
"U.	c #3C1F3B",
"V.	c #884687",
"W.	c #CE6BCD",
"X.	c #1A0D1A",
"Y.	c #4F294E",
"Z.	c #1B0D1A",
"`.	c #522B52",
" +	c #462546",
".+	c #C164C0",
"++	c #221222",
"@+	c #180D18",
"#+	c #452444",
"$+	c #2A1629",
"%+	c #6F396E",
"&+	c #C366C2",
"*+	c #703A70",
"=+	c #934D92",
"-+	c #7C407B",
";+	c #271426",
">+	c #0F070F",
",+	c #4A2649",
"'+	c #C567C4",
")+	c #261326",
"!+	c #120912",
"~+	c #241224",
"{+	c #9B519A",
"]+	c #1C0F1C",
"^+	c #2A1529",
"/+	c #2E182D",
"(+	c #291629",
"_+	c #CD6BCC",
":+	c #4D284C",
"<+	c #1C0E1C",
"[+	c #BC61BA",
"}+	c #180C17",
"|+	c #20101F",
"1+	c #311931",
"2+	c #2A152A",
"3+	c #894888",
"4+	c #814381",
"5+	c #201020",
"6+	c #2C162B",
"7+	c #261426",
"8+	c #251324",
"9+	c #281527",
"0+	c #251325",
"a+	c #2A162A",
"b+	c #341B33",
"c+	c #321931",
"d+	c #391E39",
"e+	c #B25DB1",
"f+	c #CA69C9",
"g+	c #3D203D",
"h+	c #281428",
"i+	c #422241",
"j+	c #472546",
"k+	c #30182F",
"l+	c #422242",
"m+	c #3F213F",
"n+	c #8D498C",
"o+	c #D36ED2",
"p+	c #502950",
"q+	c #2C162C",
"r+	c #4F294F",
"s+	c #613261",
"t+	c #5C305C",
"u+	c #5E315E",
"v+	c #633362",
"w+	c #623361",
"x+	c #5A2F5A",
"y+	c #4A274A",
"z+	c #1B0D1B",
"A+	c #944D92",
"B+	c #AB59AB",
"C+	c #422342",
"D+	c #643463",
"E+	c #6D396C",
"F+	c #6B376A",
"G+	c #572D57",
"H+	c #D36DD1",
"I+	c #7A3F79",
"J+	c #412241",
"K+	c #CE6BCC",
"L+	c #653465",
"M+	c #753D74",
"N+	c #713A70",
"O+	c #6A376A",
"P+	c #3E203E",
"Q+	c #B35EB2",
"R+	c #D56FD3",
"S+	c #140A13",
"T+	c #CC6ACB",
"U+	c #8C498C",
"V+	c #7E427D",
"W+	c #7E417D",
"X+	c #723B71",
"Y+	c #391D39",
"Z+	c #291529",
"`+	c #C164BF",
" @	c #A0539F",
".@	c #D770D6",
"+@	c #874787",
"@@	c #783E77",
"#@	c #743C74",
"$@	c #653565",
"%@	c #924C91",
"&@	c #9D529C",
"*@	c #753D75",
"=@	c #A254A1",
"-@	c #804380",
";@	c #271527",
">@	c #653464",
",@	c #824481",
"'@	c #331A33",
")@	c #160B16",
"!@	c #150A15",
"~@	c #351C35",
"{@	c #050305",
"]@	c #DA71D8",
"^@	c #AC5AAC",
"/@	c #6C386C",
"(@	c #562D56",
"_@	c #261325",
":@	c #773E76",
"<@	c #663565",
"                                                                ",
"          . + @ # $ % & * = -                                   ",
"          ; > , ' ) ! ~ { ] ^ / ( _                             ",
"          : < [ } | 1 2 3 2 4 5 6 7 8                           ",
"          9 0 / a b c d e f g h i + -                           ",
"            3 j k l c d e m n o p q r       s                   ",
"            t u ' v c d w r n h x y z     A B C D s             ",
"          E ] F | G 3 H I w f f J K L     M N O P Q R           ",
"        S y ( T U V W X Y Z ` H  .i R       ..+.@.@.#.$.        ",
"      %.&.*.=.-.;.A >.>.,.H Y V  .'.).        h !.@.~.{.].      ",
"    ^./.(._.:.<.[.}.|.y < 1.3 2.3.4.            5.6.@.7.} 8.    ",
"    9.0.a.b.c.a d.e.O f.< g.,.h.i.2.            a j.k. .l.L     ",
"  m.n.o.7 p.q.r.s.9.N 3 t.u.v.w.P l             x.y.O j./.z.    ",
"  & A.B.#.C.D.E.F.G.H.  I.J.K.O ^ >.            L.@ M.+ N.O.P.  ",
"  f.Q.R.~ r.E.S.U ..      T.U.. V.W.            { 9.X.P + Y.L   ",
"  Z.`.r. +B / a ..        ..e .+              <./.6 ++/.N.0.$.  ",
"  @+#+j $+P %+&+            [ *+=+h         -+$ # ;+K.6 >+,+'+  ",
"  )+S.k X.!+U             v.B @ ~+a ).    {+K ]+^+/+(+&.~.l._+  ",
"  :++ <++ ]+[+            ,+}+|+!.1+I   t x y $+1+w.2+P Z.3+    ",
"  4+6.i.q 5+w             ] 5+6+7+8+d.E 9+0+a+1+b+c+^ 7.d+e+    ",
"  f+g+ .@.J e             ~ h+i+j+J.k+0 l+m+$ & C $+P M.n+o+    ",
"    [.f.@.3.a             p+q+r+s+t+u+v+w+x+y+j k z+!+,+z       ",
"      A+@ @.K.B+          r.C+D+p.N E+F+C.v+G+d+!.!+* w         ",
"      H+I+J k.J+K+        b+7 L+M+O.N+{.O+_.P+5+P Y.Q+R+        ",
"        o+U D.S+O.T+      2+U+V+W+I+M+X+_.Y+<+Z+c.'+            ",
"            `+v. @.@    +@++4 }.g.= @@#@$@> ~+X+s               ",
"                        %@&.&@U =+V.I+*@N _.w.K =@R             ",
"                        -@;@0.>@}.x.,@@@*+E+*.^ b+V             ",
"                          l '@)@!@6 0+F.~@g+< !.{@N ]@          ",
"                          .@^@[ /@(@U._@9.!.P s.y.I.            ",
"                                .@..L o e 1.:@<@2.H.            ",
"                                                                "};
