/* XPM */
static char *searchmonkey[] = {
/* columns rows colors chars-per-pixel */
"32 32 256 2",
"   c #15100B",
".  c #3E3509",
"X  c #37322C",
"o  c #2B2B2B",
"O  c #4B2E09",
"+  c #4A370E",
"@  c #4C3D12",
"#  c #553E1A",
"$  c #543B16",
"%  c #463421",
"&  c #1C5B0F",
"*  c #205E0E",
"=  c #3B520F",
"-  c #215F10",
";  c #345411",
":  c #3A5510",
">  c #3C5B12",
",  c #19620F",
"<  c #0A710F",
"1  c #0A6D11",
"2  c #176A10",
"3  c #0C7B13",
"4  c #0B7411",
"5  c #1A7813",
"6  c #21600E",
"7  c #2C6814",
"8  c #386615",
"9  c #287A17",
"0  c #3F7419",
"q  c #42410D",
"w  c #50440D",
"e  c #484511",
"r  c #574215",
"t  c #544814",
"y  c #475716",
"u  c #6B4C0F",
"i  c #6A4515",
"p  c #654C13",
"a  c #6E4A15",
"s  c #644C19",
"d  c #6E4B1C",
"f  c #67471B",
"g  c #734B14",
"h  c #734E1C",
"j  c #68561B",
"k  c #75501B",
"l  c #417B1D",
"z  c #4B6D18",
"x  c #5F4420",
"c  c #654923",
"v  c #6C4D26",
"b  c #604520",
"n  c #6A522D",
"m  c #715D2A",
"M  c #795628",
"N  c #726134",
"B  c #2B3846",
"V  c #4A4A4A",
"C  c #4A5C6D",
"Z  c #586674",
"A  c #656362",
"S  c #757575",
"D  c #8C4F04",
"F  c #82510D",
"G  c #945102",
"H  c #9A5401",
"J  c #9A5A0C",
"K  c #815211",
"L  c #86591F",
"P  c #8B5C1E",
"I  c #885719",
"U  c #915813",
"Y  c #905916",
"T  c #9E641E",
"R  c #A0651E",
"E  c #865B23",
"W  c #8C5E23",
"Q  c #875F2D",
"!  c #8D632C",
"~  c #86602E",
"^  c #93652C",
"/  c #9B6A2C",
"(  c #87663E",
")  c #946A33",
"_  c #966A35",
"`  c #94703F",
"'  c #A16C2A",
"]  c #9B7444",
"[  c #8D785D",
"{  c #83674B",
"}  c #AA7B43",
"|  c #A07948",
" . c #0E8414",
".. c #0E8914",
"X. c #138314",
"o. c #118C16",
"O. c #108518",
"+. c #128C1A",
"@. c #1A8B19",
"#. c #1E8818",
"$. c #129217",
"%. c #13941A",
"&. c #159B1B",
"*. c #1A971C",
"=. c #2A881C",
"-. c #35831C",
";. c #249E1F",
":. c #16A31D",
">. c #18A61E",
",. c #19AC1F",
"<. c #17A91E",
"1. c #22A31E",
"2. c #169920",
"3. c #1A9C23",
"4. c #179721",
"5. c #19A521",
"6. c #1AAD21",
"7. c #1EAA29",
"8. c #1CB423",
"9. c #1DBC24",
"0. c #1FB329",
"q. c #1FBD28",
"w. c #26A821",
"e. c #2EB726",
"r. c #21B42C",
"t. c #22BB2D",
"y. c #35A623",
"u. c #1FC225",
"i. c #23C527",
"p. c #23C32D",
"a. c #22CB2A",
"s. c #27C528",
"d. c #24D32C",
"f. c #26DB2D",
"g. c #25C730",
"h. c #26CC30",
"j. c #27D231",
"k. c #28D632",
"l. c #28DB32",
"z. c #27D931",
"x. c #27E02E",
"c. c #28E62F",
"v. c #29E332",
"b. c #2AEA32",
"n. c #27E430",
"m. c #2CF234",
"M. c #2EFA36",
"N. c #8C8148",
"B. c #AE814A",
"V. c #B0824A",
"C. c #AC8351",
"Z. c #B58B55",
"A. c #B28959",
"S. c #BA905C",
"D. c #9F8465",
"F. c #A38766",
"G. c #AA8F6F",
"H. c #B28E60",
"J. c #BE9465",
"K. c #BB9C7D",
"L. c #B89774",
"P. c #CE914F",
"I. c #C2945D",
"U. c #CA965B",
"Y. c #E19D57",
"T. c #E19F59",
"R. c #DDA05F",
"E. c #E2A15D",
"W. c #C99C69",
"Q. c #C39B73",
"!. c #C7A37B",
"~. c #CEA474",
"^. c #DAAA74",
"/. c #E3A562",
"(. c #E4A768",
"). c #E4AA6B",
"_. c #E4A867",
"`. c #E5AD73",
"'. c #E6B176",
"]. c #E7B47C",
"[. c #E8B57F",
"{. c #8A8A8A",
"}. c #848484",
"|. c #9E938A",
" X c #878C91",
".X c #969492",
"XX c #AA9A8B",
"oX c #A49B93",
"OX c #AAA198",
"+X c #B2A699",
"@X c #BEA891",
"#X c #8396AD",
"$X c #8A98AA",
"%X c #859AB2",
"&X c #899CB3",
"*X c #8B9FBA",
"=X c #969CA4",
"-X c #98A2AC",
";X c #9BA6B5",
":X c #ACABAC",
">X c #A9A8A7",
",X c #B0A9A3",
"<X c #A2A9B3",
"1X c #A9B1BB",
"2X c #BCBBBB",
"3X c #BEBAB5",
"4X c #C5AA8E",
"5X c #D4AC81",
"6X c #D5B28D",
"7X c #DEB489",
"8X c #C9AE92",
"9X c #C3B09E",
"0X c #D7B895",
"qX c #E5B787",
"wX c #E8B681",
"eX c #E8B985",
"rX c #E5B98E",
"tX c #EABB8C",
"yX c #EBBE92",
"uX c #E4BE94",
"iX c #C5B7AA",
"pX c #C0BEBC",
"aX c #ECC197",
"sX c #E5C19B",
"dX c #ECC49B",
"fX c #CBC3BB",
"gX c #C2C0BE",
"hX c #EDC6A1",
"jX c #EEC8A3",
"kX c #E2C6AB",
"lX c #EFCDAB",
"zX c #E5C4A0",
"xX c #ECD0B6",
"cX c #F2D3B8",
"vX c #93A9C2",
"bX c #A3B3C7",
"nX c #B4BBC3",
"mX c #BBC3CB",
"MX c #B6C3D4",
"NX c #C4C3C3",
"BX c #CAC9C9",
"VX c #C9C8C7",
"CX c #D0CECB",
"ZX c #D1D0CF",
"AX c #C6CDD3",
"SX c #C6CFD9",
"DX c #CED5DD",
"FX c #CDD1D7",
"GX c #D9DADB",
"HX c #D1D5DB",
"JX c #F4DBC4",
"KX c #F4DDC8",
"LX c #DBDEE1",
"PX c #E4E4E5",
"IX c #E3E6EA",
"UX c None",
/* pixels */
"UXUXUXUXUXUXUXUXUXUXUXUXUX%.UXUXUXUXUXUXUXUXUXUX$.UXUXUXUXUXUXUX",
"UX3 UXUXUXUXUXUXUXUXUXUXa.9.UXUXUXUXUXUXUXUXUX8.$.UXUXUXUXUXUXUX",
"UXUX8.d.6.UXUXUXUXUXUX8.f.UXUXUXUXUXUXUXUXUXUXb.3 UXUXUXUXUXUXUX",
"UXUXUX9.b.i.$.UXUXUXi.9.:.UXUXO O UXUXUXUXUX&.x...UXUXUXUXUXUX,.",
"UXUXUXUX9.M.,.m.8.:.e.y n ( ] } } ] ( n @ 6 8.u.UX<.UXUXUX%.b.&.",
"UXUXUXUXu.&.$.b.>.; m } T J H H H H J R } m = 3 UX9.UXUXUX,.d.UX",
":.UX6.d.9.UX$.9.: ] / D D G H H H H H D D ' ] y o.9.UXUX,.a.<.UX",
":.9.u.f.UXUX3 ; ] Y ^ Z.Z.^ U H H U / S.Z.^ Y ] l $.,.u.:.u.<.UX",
"8.c.$.UXUX..;.N P V.eX'.].[.S.U J I.[.'.'.eXC.P N 1.b.6.,...9.o.",
"f.f.o.. + 9 ; _ ^ [.^.fXCXZXCXG.V.'._._.).).wX) _ > y.= -.o.:.8.",
"f.*.e F F a # W W.8XGXvX*X%X*XGXiXR.E.E.E./.(.W.W r a F F e s.u.",
"M.= F a ~ h r P ~.GX%XmXLXLXmX#XDX@XY.Y.Y.E.T.^.P f h ~ u k y $.",
"d.@ g U.E.E.c P fX;XnXIXIXDXFX1X%XHXC.E./.T.T.`.P c E.).I.g t ..",
"=.u h _.E._.c P BX%XFXGXAXmX;X=X#XLXo % ).(.(.^.P c E./.'.h p 2 ",
"1.u a E.E.'.v W BX#XAXAX1X-XC  X$XHXV   `.`.).W.! v ).E.`.v s 1.",
"..w a P._.[.v Q gX*X1X2XZ B B :X$XGXX { wX].tX) ! v ).Y.U.a w i.",
"b.: g i _ M r P +XSX&X:XoXA XX:XbXpXyXyXtXeXtXJ.P r M ^ i h : &.",
"&.X.+ h h + E C.qXVXMX%X;X:X;XbXPX>X@XdXaXaXtXyXH.E O h h e @.f.",
":.6.3.7 : $ L tXwX7X3XPXDXSXPXVXNXS .XXXdXdXaXtXsXL @ > 7 5.n.d.",
"8.:.&.$.& f ! tXqXtXyX0XiXiXiXxXoXNXS {.|.dXaXtXdX) s s.>.&.9.6.",
":.6.<.$., f ^ aXeXrXaXjXlXcXcXJXKX+XnX}.{.oXaXtXdX_ s e.&.9.M.u.",
" .6.m.u.1.# L aXqXQ.Q.0XlXcXcXJXKXKX9X2XNXgXL.tXjXL y X.c.c.:.9.",
"x.8...u.f.q L 5XtXyXrXL.F.K.8XkXkX8XL.[ .XXXaXaX6Xz i.u.x.u.u.3 ",
"m.d.m.m.X.5 s E uXtXyXaXdX6XK.F.F.K.8XjXhXaXyX0Xl #.M.u.$. .d.8.",
"$.$.c.M.u.f.5 d ! sXaXaXaXaXdXjXjXjXjXdXsXjXuX=.b.m.M.d.8.a.m.c.",
".. .x.M.M.9.&.5.y L C.sXdXdXdXaXaXdXjXjXzXN.=.=.8.b.m.d.f.$.8.u.",
"a.:.&.b.b.b.v.l.7.7 i L ) B.H.!.!.H.| _ j =.j.l.l.b.b.6.9.+.5.%.",
"p.g.5.u.b.8.j.l.i.O.%.- 8 t p u g g i r - r.j.k.5.>.6.:.o.3 UXUX",
"g.r.4.&.+.p.l.k.3.t.3.&.v.3 #.9 ; 8 -.+.4.O.0.k.l.i.+.3 4 &.< p.",
"r.3 4.3 6.8.t.j.g.g.t.r.2.v.v.l.0.o.1 +.0.g.h.h.%.$.< 4.p.k.d.a.",
"UXUX3.O.a.8.d.k.h.g.t.7.O.%.l.l.5.4.+.r.r.t.g.h.j.+.t.+.h.k.8.v.",
"UXUXUX1 +.6.6.o.t.t.t.3 4.4.5.l.h.4.+.3.r.t.0.3 3.5.t.h.h.g.a.3 "
};
