/* XPM */
static char *gftp[] = {
/* columns rows colors chars-per-pixel */
"32 30 125 2 ",
"   c #19213C",
".  c #202020",
"X  c #313B5D",
"o  c #3F4867",
"O  c #384369",
"+  c #394778",
"@  c #464646",
"#  c #515151",
"$  c #444C65",
"%  c #484E64",
"&  c #4D5265",
"*  c #4B546F",
"=  c #5C5E64",
"-  c #50566A",
";  c #4E5570",
":  c #4F597A",
">  c #515B7C",
",  c #5C606F",
"<  c #676B7B",
"1  c #757575",
"2  c #72757E",
"3  c #7D7D7D",
"4  c #A47876",
"5  c #AC7F7C",
"6  c #2E438B",
"7  c #2B4192",
"8  c #45548B",
"9  c #4D5B8C",
"0  c #4C5E9C",
"q  c #5D6890",
"w  c #6C7181",
"e  c #405CBE",
"r  c #4E61A0",
"t  c #4D66BF",
"y  c #556AB3",
"u  c #6371A4",
"i  c #6577B6",
"p  c #4B66C4",
"a  c #4F68C0",
"s  c #536CC3",
"d  c #516CCB",
"f  c #5A72C5",
"g  c #5F78CE",
"h  c #506DD5",
"j  c #5C77D6",
"k  c #5876DF",
"l  c #5A78DF",
"z  c #637ACA",
"x  c #677FD0",
"c  c #647EDC",
"v  c #5E7BE0",
"b  c #627EE1",
"n  c #6D85D9",
"m  c #6F88DE",
"M  c #728ADD",
"N  c #6682E1",
"B  c #6A85E2",
"V  c #6E88E3",
"C  c #748DE4",
"Z  c #7B93E5",
"A  c #8F8F8F",
"S  c #8B8E95",
"D  c #8F9198",
"F  c #929293",
"G  c #B48F86",
"H  c #A9908C",
"J  c #B89B8E",
"K  c #BC9996",
"L  c #BEAD9C",
"P  c #ABABAB",
"I  c #B3A1A0",
"U  c #BCACAB",
"Y  c #AEAFB2",
"T  c #B2B3B3",
"R  c #B5B6B9",
"E  c #BFBFBF",
"W  c #C9AF9D",
"Q  c #C2A5A5",
"!  c #D0BEAA",
"~  c #D0BAB2",
"^  c #C9C6BB",
"/  c #D2C2B7",
"(  c #D8C7B9",
")  c #8095DF",
"_  c #899CDE",
"`  c #849AE7",
"'  c #889DE5",
"]  c #859BE8",
"[  c #899EE8",
"{  c #8DA1E9",
"}  c #96A7E4",
"|  c #93A6EA",
" . c #96A9EB",
".. c #9BADEC",
"X. c #9FB0EB",
"o. c #A4B4ED",
"O. c #A8B7EE",
"+. c #AAB9EE",
"@. c #B0BEEF",
"#. c #B1BFF0",
"$. c #B6C3F1",
"%. c #C4C4C4",
"&. c #CEC7C2",
"*. c #CECFCF",
"=. c #D0CDC1",
"-. c #D6D1CF",
";. c #DFD6CB",
":. c #D3D3D4",
">. c #DEDAD4",
",. c #DCDCDC",
"<. c #E0DDCE",
"1. c #E5DEDC",
"2. c #E8DEDE",
"3. c #E3E1D7",
"4. c #E3E1DD",
"5. c #E9E6D9",
"6. c #E4E4E4",
"7. c #E9E9E9",
"8. c #F1EEEC",
"9. c #F2F1ED",
"0. c #F5F4F4",
"q. c #F8F7F7",
"w. c #F8F8F5",
"e. c #FFFFFF",
"r. c None",
/* pixels */
"r.r.r.r.r.r.r.r.r.r.r.r.r.r.r.r.r.r.r.r.r.r.r.r.r.r.r.r.r.r.r.r.",
"r.r.r.r.r.r.r.r.r.r.r.r.r.r.r.r.r.r.r.r.r.r.r.r.r.r.r.r.r.r.r.r.",
"r.r.r.r.r.r.r.r.r.r.r.r.r.r.r.r.r.r.r.r.r.r.r.r.r.r.r.r.r.r.r.r.",
"r.r.r.r.r.r.r.r.r.r.r.r.3 F A A A A A A A A A S 1 r.r.r.r.r.r.r.",
"z z g s f s p p p e 7 > 6.e.q.e.e.q.e.q.e.e.e.e.:.F r.r.r.r.r.r.",
"` o.C V  . .b C | h 6 w q.e.e.e.e.e.e.e.e.e.e.q.:.6.F r.r.r.r.r.",
"Z O.C ] { { Z N | d + F e.e.e.e.e.e.e.e.e.e.e.0.:.e.6.r.r.r.r.r.",
"C ..C { ] ] Z v ' p O R e.e.e.e.e.e.e.e.e.e.e.0.E 6.6.T r.r.r.r.",
"Z @.` `  ...C B ..t X :.e.e.e.e.e.e.e.e.e.e.e.w.>.,.,.:.3 r.r.r.",
"` o.` B [ ` b V ' q $ 7.e.e.e.e.e.q.q.e.e.e.e.e.e.e.e.7.r.r.r.r.",
"{ o.[ V { ] v Z ' 8 < 0.e.e.e.e.q.^ 3.4.w.e.e.e.e.e.e.:.r.r.r.r.",
"O.| o.C ]  .b  .z : S e.e.e.e.e.w.;.5.=.9.e.e.e.e.e.e.*.r.r.r.r.",
"+.Z o.C C  .N  .s * Y e.e.e.e.e.7.^ >.4.-.e.e.e.e.e.q.%.r.r.r.r.",
"o.o.o.C { O.N } i - *.e.e.e.e.e.:.W / ;.1.q.e.e.e.e.q.F r.r.r.r.",
"' o.` V |  .N m u - 7.e.e.e.e.e.8./ W ( >.0.e.e.e.e.0.r.r.r.r.r.",
"[ +.Z C  . .V n q < q.e.e.e.e.e.q.&.J ! q.e.e.e.e.e.6.r.r.r.r.r.",
"] +.Z { | | Z x > D e.e.e.e.e.-.I H G ~ q.e.e.e.e.e.%.r.r.r.r.r.",
"Z o.Z  .{ [ ] p o R e.e.e.e.e.U 4 5 K 1.e.e.e.e.e.e.T r.r.r.r.r.",
"` $.{ [ ..o.Z y & *.e.e.e.e.e.6.Q Q 2.e.e.e.e.e.e.q.P r.r.r.r.r.",
"{ O.{ C | { n r = 6.e.e.e.e.e.e.q.q.e.e.e.e.e.e.e.7.r.r.r.r.r.r.",
"..#...C .. .j 9 w q.e.e.e.e.e.e.e.e.e.e.e.e.e.e.e.6.r.r.r.r.r.r.",
"#.[ O.Z ` ..z > S e.e.e.e.e.e.e.e.e.e.e.e.e.e.e.e.:.r.r.r.r.r.r.",
"$.] O.` Z ..f * Y e.e.e.e.e.e.e.e.e.e.e.e.e.e.e.e.P r.r.r.r.r.r.",
"o.o.o.Z  .+.y $ :.e.e.e.e.e.e.e.e.e.e.e.e.e.e.e.e.F r.r.r.r.r.r.",
"` } ) M ' _ 0 % 7.e.e.e.e.e.e.e.e.e.e.e.e.e.e.e.7.r.r.r.r.r.r.r.",
"r.r.r.r.r.r.  = ,.7.7.7.7.7.7.7.7.7.7.7.7.7.7.7.%.r.r.r.r.r.r.r.",
"r.r.r.r.r.r.r.. @ @ @ @ @ @ @ @ @ @ @ @ @ @ @ # r.r.r.r.r.r.r.r.",
"r.r.r.r.r.r.r.r.r.r.r.r.r.r.r.r.r.r.r.r.r.r.r.r.r.r.r.r.r.r.r.r.",
"r.r.r.r.r.r.r.r.r.r.r.r.r.r.r.r.r.r.r.r.r.r.r.r.r.r.r.r.r.r.r.r.",
"r.r.r.r.r.r.r.r.r.r.r.r.r.r.r.r.r.r.r.r.r.r.r.r.r.r.r.r.r.r.r.r."
};
