/* XPM */
static char * gnome_ppp_xpm[] = {
"32 32 416 2",
"  	c None",
". 	c #170602",
"+ 	c #5C3930",
"@ 	c #96685D",
"# 	c #A2756B",
"$ 	c #A17268",
"% 	c #AD796E",
"& 	c #B07A6D",
"* 	c #B07A6C",
"= 	c #AB776A",
"- 	c #A87265",
"; 	c #A66F61",
"> 	c #A36C5E",
", 	c #A06C5F",
"' 	c #9A6457",
") 	c #94594B",
"! 	c #87574B",
"~ 	c #7B4A3E",
"{ 	c #5E3227",
"] 	c #3E180F",
"^ 	c #61271A",
"/ 	c #955D50",
"( 	c #DF9685",
"_ 	c #EB8C77",
": 	c #E9856E",
"< 	c #E87A61",
"[ 	c #603C35",
"} 	c #523735",
"| 	c #89301C",
"1 	c #CD3D1B",
"2 	c #D43F1C",
"3 	c #DF421E",
"4 	c #8D3520",
"5 	c #533C3B",
"6 	c #6E4138",
"7 	c #E77F67",
"8 	c #E67C63",
"9 	c #D06D56",
"0 	c #9B4B39",
"a 	c #7B3627",
"b 	c #C86E5A",
"c 	c #E77B62",
"d 	c #E4674B",
"e 	c #E1502F",
"f 	c #E04724",
"g 	c #DF4420",
"h 	c #503534",
"i 	c #D86764",
"j 	c #280C05",
"k 	c #73210F",
"l 	c #832711",
"m 	c #832611",
"n 	c #7C2410",
"o 	c #290C05",
"p 	c #DE807D",
"q 	c #3E1716",
"r 	c #D14222",
"s 	c #E04B29",
"t 	c #E35C3D",
"u 	c #E46548",
"v 	c #CD7560",
"w 	c #854537",
"x 	c #C56851",
"y 	c #E36142",
"z 	c #E15B3C",
"A 	c #E56A4F",
"B 	c #E25B3C",
"C 	c #D6401F",
"D 	c #5A190C",
"E 	c #4E2424",
"F 	c #C34242",
"G 	c #290807",
"H 	c #2F0909",
"I 	c #D35454",
"J 	c #300908",
"K 	c #49150A",
"L 	c #B53619",
"M 	c #E15232",
"N 	c #E25F42",
"O 	c #E25A3B",
"P 	c #E04D2C",
"Q 	c #902D17",
"R 	c #220A04",
"S 	c #815C53",
"T 	c #E36346",
"U 	c #E25C3D",
"V 	c #E77B63",
"W 	c #EA907B",
"X 	c #E9846D",
"Y 	c #A5412D",
"Z 	c #1F0806",
"` 	c #9E3435",
" .	c #C44F50",
"..	c #6F1415",
"+.	c #520F0F",
"@.	c #530F0F",
"#.	c #521B1B",
"$.	c #8C3131",
"%.	c #CC5B5B",
"&.	c #6D1515",
"*.	c #230A06",
"=.	c #AF381D",
"-.	c #E46F55",
";.	c #E99785",
">.	c #E88772",
",.	c #E4694E",
"'.	c #DA4423",
").	c #8E2A13",
"!.	c #E46649",
"~.	c #E1502E",
"{.	c #E0593A",
"].	c #E1674C",
"^.	c #E57B62",
"/.	c #E17E6A",
"(.	c #5D211D",
"_.	c #981B1C",
":.	c #C52425",
"<.	c #C02829",
"[.	c #9B1B1C",
"}.	c #AB1D1E",
"|.	c #B71F20",
"1.	c #B81F20",
"2.	c #B11E1F",
"3.	c #AE1E1E",
"4.	c #AE1E1F",
"5.	c #D32627",
"6.	c #C92627",
"7.	c #831A1A",
"8.	c #65251B",
"9.	c #EA9581",
"0.	c #ECA494",
"a.	c #E8866F",
"b.	c #E4684B",
"c.	c #E04825",
"d.	c #BE3819",
"e.	c #E36345",
"f.	c #DF4623",
"g.	c #E04B2A",
"h.	c #E05232",
"i.	c #DF6C51",
"j.	c #BD5948",
"k.	c #712323",
"l.	c #E75556",
"m.	c #EE5354",
"n.	c #E95353",
"o.	c #E65252",
"p.	c #EB5253",
"q.	c #EC5151",
"r.	c #EC5051",
"s.	c #ED5354",
"t.	c #EC5353",
"u.	c #EB5353",
"v.	c #E75353",
"w.	c #D74E4E",
"x.	c #431717",
"y.	c #CF6F5A",
"z.	c #E47056",
"A.	c #E25737",
"B.	c #DF4421",
"C.	c #C43A1A",
"D.	c #DB5C3E",
"E.	c #E14D2B",
"F.	c #E14F2D",
"G.	c #E04F2E",
"H.	c #AD3F24",
"I.	c #622517",
"J.	c #B93D3D",
"K.	c #F54C4C",
"L.	c #F22C2B",
"M.	c #EF3A3A",
"N.	c #E24040",
"O.	c #E34041",
"P.	c #E34141",
"Q.	c #E44242",
"R.	c #E44241",
"S.	c #E53E3E",
"T.	c #F13030",
"U.	c #F72C2C",
"V.	c #721414",
"W.	c #83301D",
"X.	c #DF4927",
"Y.	c #E04A27",
"Z.	c #DF4320",
"`.	c #C1391A",
" +	c #000000",
".+	c #9F3E27",
"++	c #BC4429",
"@+	c #B33E23",
"#+	c #8B2C16",
"$+	c #5F1C0D",
"%+	c #0B0402",
"&+	c #DA4F4F",
"*+	c #F13232",
"=+	c #E42828",
"-+	c #DE8887",
";+	c #DBC0C0",
">+	c #D8BDBD",
",+	c #CFB4B4",
"'+	c #DCC1C1",
")+	c #DCC2C1",
"!+	c #D0B6B6",
"~+	c #DDC2C2",
"{+	c #E1C6C6",
"]+	c #C49F9F",
"^+	c #BC3536",
"/+	c #F52A2B",
"(+	c #B31F1F",
"_+	c #1B0905",
":+	c #6E2212",
"<+	c #BA381A",
"[+	c #C83C1C",
"}+	c #B73619",
"|+	c #852611",
"1+	c #0B0200",
"2+	c #0E0200",
"3+	c #280505",
"4+	c #EB7170",
"5+	c #EF2928",
"6+	c #D62727",
"7+	c #C69A9A",
"8+	c #CECECE",
"9+	c #D0D0D0",
"0+	c #CDCDCD",
"a+	c #D4D4D4",
"b+	c #D6D6D6",
"c+	c #C7C7C7",
"d+	c #DADADA",
"e+	c #DBDBDB",
"f+	c #C5C4C4",
"g+	c #A0494A",
"h+	c #F02929",
"i+	c #F12A29",
"j+	c #851212",
"k+	c #EE6564",
"l+	c #EE2828",
"m+	c #D23D3D",
"n+	c #DBB7B7",
"o+	c #DFDFDF",
"p+	c #DCDCDC",
"q+	c #D6D7D7",
"r+	c #E0E0E0",
"s+	c #E1E2E2",
"t+	c #D9D9DA",
"u+	c #D3D3D3",
"v+	c #E6E6E6",
"w+	c #E2E2E2",
"x+	c #A47676",
"y+	c #ED2828",
"z+	c #360909",
"A+	c #912828",
"B+	c #EA4A4B",
"C+	c #EA2626",
"D+	c #CA5656",
"E+	c #E8DBDB",
"F+	c #E1E1E1",
"G+	c #CBCBCB",
"H+	c #CCB5B5",
"I+	c #C11F1F",
"J+	c #831515",
"K+	c #A35D5D",
"L+	c #E72424",
"M+	c #E72525",
"N+	c #B75454",
"O+	c #E9DFDF",
"P+	c #E9E9E9",
"Q+	c #E6E5E5",
"R+	c #CACACA",
"S+	c #E7E7E7",
"T+	c #EAEAEA",
"U+	c #E8E8E8",
"V+	c #E8E6E5",
"W+	c #A32524",
"X+	c #DC2323",
"Y+	c #9A1918",
"Z+	c #3C0808",
"`+	c #BD6060",
" @	c #E32323",
".@	c #A75858",
"+@	c #E8E1E1",
"@@	c #DDD9D9",
"#@	c #DFDBDB",
"$@	c #C1BDBD",
"%@	c #E2DEDE",
"&@	c #E4E0E0",
"*@	c #E6E1E1",
"=@	c #C7C4C3",
"-@	c #E8E5E4",
";@	c #EBE7E6",
">@	c #ECE8E8",
",@	c #AE5353",
"'@	c #C71E1F",
")@	c #C41E1E",
"!@	c #230505",
"~@	c #450909",
"{@	c #CE5656",
"]@	c #E12121",
"^@	c #E02121",
"/@	c #7C4A4A",
"(@	c #BFB9B9",
"_@	c #AAA4A4",
":@	c #ABA5A5",
"<@	c #959191",
"[@	c #AFA9A9",
"}@	c #ACA6A6",
"|@	c #969292",
"1@	c #B0ABAB",
"2@	c #ADA7A7",
"3@	c #AEA7A7",
"4@	c #805656",
"5@	c #B51B1B",
"6@	c #D92020",
"7@	c #410909",
"8@	c #512C2C",
"9@	c #DD5151",
"0@	c #DC2020",
"a@	c #DC1F20",
"b@	c #AF1919",
"c@	c #921414",
"d@	c #A11717",
"e@	c #D21E1E",
"f@	c #670F0F",
"g@	c #482D2D",
"h@	c #D84141",
"i@	c #DA1E1E",
"j@	c #D91E1E",
"k@	c #D91E1D",
"l@	c #BA1A1A",
"m@	c #4C2424",
"n@	c #E96C6C",
"o@	c #E96D6D",
"p@	c #E25453",
"q@	c #DE4444",
"r@	c #DB3B3B",
"s@	c #DA3636",
"t@	c #DB3A3B",
"u@	c #DC4243",
"v@	c #DB4243",
"w@	c #DB4040",
"x@	c #DA3C3C",
"y@	c #D93A3A",
"z@	c #D73535",
"A@	c #D63636",
"B@	c #D74748",
"C@	c #D34A4A",
"D@	c #CB4A4A",
"E@	c #BA3838",
"F@	c #991D1D",
"G@	c #522A2A",
"H@	c #F14544",
"I@	c #EA2829",
"J@	c #E7403F",
"K@	c #E44646",
"L@	c #E1494A",
"M@	c #DD4B4A",
"N@	c #DC4E4D",
"O@	c #D64040",
"P@	c #D23E3E",
"Q@	c #D34F4F",
"R@	c #D0494A",
"S@	c #CC4646",
"T@	c #C74040",
"U@	c #BF3131",
"V@	c #B72526",
"W@	c #AE1C1C",
"X@	c #A20707",
"Y@	c #9B0101",
"Z@	c #8D0000",
"`@	c #542B2C",
" #	c #EE4F4F",
".#	c #E22322",
"+#	c #DF2322",
"@#	c #D92121",
"##	c #D51F1F",
"$#	c #D11D1D",
"%#	c #CF1C1C",
"&#	c #CD2D2E",
"*#	c #C92B2B",
"=#	c #BE1313",
"-#	c #BB1111",
";#	c #B50E0F",
">#	c #B10D0D",
",#	c #AC0B0B",
"'#	c #AA0A09",
")#	c #A40707",
"!#	c #9F0404",
"~#	c #990000",
"{#	c #8B0000",
"]#	c #221212",
"^#	c #5B2424",
"/#	c #8A2B2A",
"(#	c #A32323",
"_#	c #AD2020",
":#	c #B42020",
"<#	c #BA2120",
"[#	c #C12322",
"}#	c #C02020",
"|#	c #BE1D1D",
"1#	c #BD1919",
"2#	c #B71616",
"3#	c #B11414",
"4#	c #AF1515",
"5#	c #AA1414",
"6#	c #9C1312",
"7#	c #941212",
"8#	c #801615",
"9#	c #4E0E0E",
"0#	c #2C0000",
"a#	c #0B0B0B",
"b#	c #080808",
"c#	c #070707",
"d#	c #060606",
"e#	c #0A0808",
"f#	c #080101",
"g#	c #040000",
"h#	c #0F0303",
"i#	c #050101",
"                                                                ",
"                                                                ",
"                                                                ",
"                                                                ",
"                                                                ",
"            . + @ # $ % & * = - ; > , ' ) ! ~ { ]               ",
"        ^ / ( _ : < [ } | 1 2 2 2 2 3 4 5 6 7 8 9 0 a           ",
"        b c d e f g h i j k l m l n n o p q r s t u v w         ",
"      x y z A B C D E F G             H I J K L M N O P Q R     ",
"    S T U V W X Y Z `  ...+.@.@.@.@.#.$.%.&.*.=.-.;.>.,.'.).    ",
"    !.~.{.].^./.(._.:.<.[.}.|.1.1.2.3.4.5.6.7.8.9.0.a.b.c.d.    ",
"    e.f.g.h.i.j.k.l.m.n.o.p.q.r.s.t.u.s.s.v.w.x.y.z.b.A.B.C.    ",
"    D.E.F.G.H.I.J.K.L.M.N.N.O.O.P.Q.R.Q.S.T.U.V.W.P X.Y.Z.`. +  ",
"    .+++@+#+$+%+&+*+=+-+;+>+,+'+)+!+~+{+]+^+/+(+_+:+<+[+}+|+    ",
"      1+2+    3+4+5+6+7+8+9+0+a+b+c+d+e+f+g+h+i+ +   + + +      ",
"              j+k+l+m+n+o+p+q+r+s+t+u+v+w+x+y+l+z+              ",
"              A+B+C+D+E+w+e+u+r+o+F+G+r+w+H+I+C+J+ +            ",
"              K+L+M+N+O+P+Q+R+S+T+T+a+S+U+V+W+X+Y+ +            ",
"            Z+`+ @ @.@+@@@#@$@%@&@*@=@-@;@>@,@'@)@!@            ",
"            ~@{@]@^@/@(@_@:@<@[@}@}@|@1@2@3@4@5@6@7@            ",
"            8@9@0@a@b@c@c@c@c@c@c@c@c@c@c@c@d@e@0@f@ +          ",
"            g@h@i@j@j@i@j@j@j@j@j@i@k@j@i@i@i@i@j@l@ +          ",
"            m@n@o@p@q@r@s@t@u@v@w@x@y@z@A@B@C@D@E@F@ +          ",
"            G@H@I@J@K@L@M@N@O@P@Q@R@S@T@U@V@W@X@Y@Z@ +          ",
"            `@ #.#+#@###$#%#&#*#=#-#;#>#,#'#)#!#~#{# +          ",
"            ]#^#/#(#_#:#<#[#}#|#1#2#3#4#5#6#7#8#9#0#            ",
"                a#b#c#d#e#f#g# +h#h#h#i# + + + + +              ",
"                                                                ",
"                                                                ",
"                                                                ",
"                                                                ",
"                                                                "};
